<svg preserveAspectRatio="none" overflow="visible" style="display: block;" width="16" height="16" viewBox="0 0 16 16" fill="none" xmlns="http://www.w3.org/2000/svg">
<g id="Frame">
<path id="Vector" d="M1.45 14.2333V12.9167H3.08333V1.75H10.15V2.5H12.9333V12.9167H14.55V14.2333H11.6V3.83333H10.15V14.2333H1.45ZM4.41667 3.08333V12.9167V3.08333ZM8.03333 8C8.03333 7.8 7.96389 7.63056 7.825 7.49167C7.68611 7.35278 7.51667 7.28333 7.31667 7.28333C7.10556 7.28333 6.93056 7.35278 6.79167 7.49167C6.65278 7.63056 6.58333 7.8 6.58333 8C6.58333 8.2 6.65278 8.36944 6.79167 8.50833C6.93056 8.64722 7.10556 8.71667 7.31667 8.71667C7.51667 8.71667 7.68611 8.64722 7.825 8.50833C7.96389 8.36944 8.03333 8.2 8.03333 8ZM4.41667 12.9167H8.83333V3.08333H4.41667V12.9167Z" fill="black" fill-opacity="0.6"/>
</g>
</svg>
